<?xml version="1.0" standalone="no"?>
<!DOCTYPE svg PUBLIC "-//W3C//DTD SVG 20010904//EN"
 "http://www.w3.org/TR/2001/REC-SVG-20010904/DTD/svg10.dtd">
<svg version="1.0" xmlns="http://www.w3.org/2000/svg"
 width="1500.000000pt" height="1500.000000pt" viewBox="0 0 1500.000000 1500.000000"
 preserveAspectRatio="xMidYMid meet">

<g transform="translate(0.000000,1500.000000) scale(0.100000,-0.100000)"
fill="#000000" stroke="none">
<path d="M2776 10039 c-3 -8 -12 -75 -20 -149 -9 -74 -23 -184 -31 -245 -8
-60 -19 -146 -25 -190 -5 -44 -16 -134 -25 -200 -8 -66 -22 -176 -30 -245 -47
-379 -55 -438 -70 -545 -8 -55 -21 -156 -30 -225 -8 -69 -22 -177 -30 -240 -8
-63 -19 -151 -24 -195 -6 -44 -17 -134 -26 -200 -9 -66 -20 -151 -25 -190 -5
-38 -16 -126 -25 -195 -9 -69 -20 -156 -25 -195 -38 -310 -55 -422 -68 -455
-6 -14 -11 -21 -11 -16 -1 5 -10 73 -20 150 -11 78 -24 184 -31 236 -6 52 -17
145 -25 205 -19 151 -42 335 -60 490 -9 72 -18 138 -21 148 -5 15 -24 17 -215
17 l-210 0 3 -62 3 -63 131 3 c73 2 141 1 152 -2 23 -8 28 -24 42 -146 5 -47
16 -139 25 -205 9 -66 20 -154 25 -195 29 -242 40 -335 50 -425 6 -55 13 -111
15 -125 2 -14 6 -52 10 -85 3 -33 10 -87 15 -120 5 -33 17 -123 25 -200 17
-142 55 -452 77 -625 11 -87 12 -92 20 -57 4 21 15 93 23 160 17 140 80 635
95 747 5 41 19 152 31 245 11 94 25 202 30 240 13 91 37 287 49 395 6 47 12
94 15 105 2 12 9 59 14 105 6 47 17 137 25 200 8 63 24 189 36 280 11 91 24
199 30 240 6 41 17 129 26 195 8 66 22 167 31 225 8 58 18 130 22 160 l7 55
11 -40 c7 -22 17 -94 23 -160 6 -66 15 -149 20 -185 5 -36 12 -105 15 -155 3
-49 10 -130 15 -180 5 -49 17 -166 25 -260 9 -93 20 -208 25 -255 20 -173 31
-288 40 -415 8 -109 22 -263 54 -600 3 -27 10 -113 16 -190 6 -77 14 -151 17
-165 5 -25 5 -25 14 -3 4 12 14 52 23 90 17 80 74 339 80 368 3 11 12 52 21
90 8 39 20 88 25 110 5 22 28 123 50 225 59 275 62 290 71 290 13 0 41 -105
94 -350 75 -348 102 -462 108 -453 4 6 23 105 42 219 20 115 43 247 51 294 20
112 38 214 67 388 14 78 30 149 37 157 16 20 242 22 258 3 5 -7 15 -89 21
-183 7 -93 16 -222 21 -285 8 -109 60 -792 60 -797 0 -2 5 -3 10 -3 6 0 10 7
10 16 0 9 9 55 20 103 11 47 29 127 40 176 11 50 27 117 35 150 8 33 26 112
41 175 14 63 37 162 51 220 13 58 28 123 33 145 28 120 72 305 79 340 5 22 16
69 25 105 17 72 49 210 72 310 8 36 17 76 20 90 9 48 28 110 35 110 3 0 12
-19 19 -42 7 -24 16 -54 20 -68 5 -14 11 -47 15 -75 3 -27 12 -79 20 -115 12
-53 42 -195 71 -337 4 -23 6 -23 183 -23 l179 0 7 30 c4 16 4 43 0 60 l-6 29
-127 3 -126 3 -22 105 c-12 58 -31 148 -43 200 -11 52 -50 235 -85 405 -36
171 -71 335 -78 365 -13 65 -25 82 -32 49 -3 -13 -22 -96 -42 -184 -20 -88
-42 -187 -50 -220 -7 -33 -29 -127 -49 -210 -37 -155 -191 -823 -205 -885 -4
-19 -16 -66 -26 -105 -17 -66 -18 -68 -26 -40 -8 28 -19 145 -33 360 -3 50 -8
105 -11 123 l-5 32 -244 0 c-134 0 -246 -3 -248 -7 -3 -5 -17 -82 -31 -173
-54 -330 -68 -382 -89 -328 -5 12 -13 46 -18 73 -4 28 -14 79 -23 115 -19 86
-74 343 -86 400 -5 25 -11 52 -13 60 -3 8 -8 27 -11 43 -4 15 -10 27 -14 27
-4 0 -15 -44 -25 -98 -10 -53 -22 -110 -27 -127 -4 -16 -15 -64 -24 -105 -87
-395 -140 -610 -148 -596 -10 18 -32 200 -53 441 -9 99 -20 221 -25 270 -5 50
-17 169 -25 265 -9 96 -20 218 -25 270 -5 52 -17 172 -25 265 -20 222 -43 477
-55 590 -5 50 -12 124 -15 165 -3 41 -15 163 -25 270 -10 107 -24 247 -30 310
-11 115 -16 135 -24 109z"/>
<path d="M2079 9270 c-175 -30 -307 -200 -297 -384 11 -228 238 -398 457 -341
278 72 381 400 191 608 -58 64 -125 102 -204 116 -66 12 -80 12 -147 1z"/>
<path d="M8563 9066 c-36 -17 -60 -38 -80 -67 -25 -38 -28 -51 -28 -125 0 -77
2 -85 31 -121 89 -111 254 -110 340 4 103 137 -1 333 -177 333 -19 0 -57 -11
-86 -24z m170 -127 c60 -64 15 -159 -75 -159 -59 0 -98 38 -98 96 0 49 21 81
63 93 45 12 78 4 110 -30z"/>
<path d="M3812 8677 c-126 -46 -185 -201 -121 -317 99 -179 366 -150 421 46
12 43 3 125 -17 163 -20 38 -75 88 -117 105 -43 19 -119 20 -166 3z m150 -147
c27 -27 30 -36 25 -71 -6 -46 -26 -72 -67 -89 -24 -10 -35 -9 -67 6 -51 25
-69 64 -54 115 23 75 107 95 163 39z"/>
<path d="M12424 8540 c-343 -69 -561 -315 -541 -610 13 -193 102 -339 272
-450 35 -23 159 -82 276 -131 357 -151 401 -177 438 -251 41 -86 20 -203 -47
-260 -59 -49 -135 -71 -252 -72 -165 -1 -318 52 -464 163 -38 29 -74 50 -80
48 -7 -3 -61 -64 -120 -136 -105 -128 -108 -132 -91 -151 31 -34 117 -97 191
-138 345 -196 766 -196 1049 -2 160 110 255 290 255 483 0 172 -44 282 -159
398 -66 66 -92 84 -191 132 -63 30 -178 81 -255 112 -352 143 -409 188 -407
321 3 130 120 209 307 207 142 -1 246 -35 377 -125 l57 -38 63 76 c35 43 80
98 101 123 20 25 37 50 37 56 0 16 -107 99 -192 148 -117 68 -319 118 -468
116 -36 0 -106 -9 -156 -19z"/>
<path d="M5700 8518 c0 -5 48 -256 73 -388 14 -69 90 -467 171 -885 80 -418
148 -770 151 -783 l5 -22 252 2 252 3 23 100 c69 305 214 970 225 1032 12 72
12 72 -56 380 -38 169 -72 312 -76 317 -9 9 -19 -24 -40 -119 -6 -27 -46 -201
-90 -385 -64 -274 -152 -691 -186 -882 -14 -83 -31 -30 -58 182 -31 240 -70
486 -192 1230 -14 85 -27 170 -30 188 l-5 32 -209 0 c-116 0 -210 -1 -210 -2z"/>
<path d="M6810 8507 c0 -14 20 -108 85 -392 20 -88 55 -241 77 -340 82 -373
99 -449 173 -780 42 -187 83 -371 91 -410 8 -38 19 -87 25 -107 l10 -38 249 0
c228 0 249 1 254 18 5 15 60 309 87 462 5 30 18 100 29 155 10 55 33 174 49
265 17 91 46 248 65 350 63 333 107 573 127 685 11 61 22 118 25 128 5 16 -7
17 -193 15 l-198 -3 -32 -200 c-105 -647 -157 -992 -193 -1268 -22 -173 -27
-197 -40 -197 -9 0 -33 97 -51 200 -20 121 -78 404 -109 540 -64 271 -80 340
-144 610 -36 151 -68 285 -71 298 -5 22 -8 22 -160 22 -123 0 -155 -3 -155
-13z"/>
<path d="M8472 7483 l3 -1038 150 0 150 0 3 1038 2 1037 -155 0 -155 0 2
-1037z"/>
<path d="M8960 8350 l0 -170 395 0 395 0 0 170 0 170 -395 0 -395 0 0 -170z"/>
<path d="M10202 7483 l3 -1038 580 0 580 0 68 44 67 43 0 129 0 129 -442 2
-443 3 0 275 0 275 363 3 362 2 0 170 0 170 -362 2 -363 3 -3 220 c-1 121 0
230 3 242 l5 23 428 2 427 3 0 165 0 165 -638 3 -637 2 2 -1037z"/>
<path d="M8960 7520 l0 -170 330 0 330 0 0 170 0 170 -330 0 -330 0 0 -170z"/>
<path d="M4806 7176 c-91 -34 -148 -105 -154 -195 -7 -99 25 -167 103 -219
134 -88 322 -15 357 140 22 98 -26 209 -111 256 -53 30 -141 38 -195 18z"/>
<path d="M8962 6618 l3 -173 329 -3 330 -2 55 36 c104 68 101 61 101 196 l0
118 -410 0 -410 0 2 -172z"/>
<path d="M1670 6491 c-75 -23 -122 -67 -154 -145 -60 -146 81 -324 240 -302
122 16 204 108 204 229 0 148 -149 260 -290 218z m103 -132 c65 -34 76 -102
23 -155 -19 -19 -44 -34 -57 -34 -36 0 -84 34 -99 69 -16 41 1 86 44 112 36
22 58 24 89 8z"/>
</g>
</svg>
